<?xml version="1.0" standalone="no"?>
<!DOCTYPE svg PUBLIC "-//W3C//DTD SVG 20010904//EN"
 "http://www.w3.org/TR/2001/REC-SVG-20010904/DTD/svg10.dtd">
<svg version="1.0" xmlns="http://www.w3.org/2000/svg"
 width="1080.000000pt" height="1080.000000pt" viewBox="0 0 1080.000000 1080.000000"
 preserveAspectRatio="xMidYMid meet">

<g transform="translate(0.000000,1080.000000) scale(0.100000,-0.100000)"
fill="#000000" stroke="none">
<path d="M0 5400 l0 -5400 5400 0 5400 0 0 5400 0 5400 -5400 0 -5400 0 0
-5400z m3252 3625 c98 -17 248 -87 347 -163 95 -72 174 -165 240 -281 30 -51
59 -95 67 -98 7 -2 50 5 96 16 162 40 478 91 818 133 73 9 263 13 630 13 444
0 547 -3 665 -18 225 -28 386 -55 612 -99 178 -35 214 -40 227 -28 9 7 35 48
57 90 70 135 226 284 379 360 159 80 345 112 524 91 308 -36 582 -226 716
-496 70 -143 82 -198 84 -395 1 -134 -3 -176 -18 -225 -27 -90 -69 -176 -130
-270 l-55 -85 78 -97 c43 -54 104 -136 135 -183 70 -105 185 -334 193 -383 l6
-37 -3478 0 -3477 0 6 33 c10 48 89 220 143 309 26 44 84 126 128 185 122 162
116 140 64 214 -134 192 -183 336 -183 544 0 154 22 252 86 382 122 246 337
414 622 489 81 21 105 23 216 18 69 -3 160 -12 202 -19z m-912 -2464 l25 -7 6
-163 6 -162 184 -187 c101 -103 572 -577 1047 -1054 l863 -868 257 -1 c141 0
376 -6 522 -12 160 -8 299 -10 350 -5 133 13 801 20 938 10 l124 -9 844 -844
844 -844 0 -126 c0 -92 -4 -130 -14 -145 -13 -17 -30 -19 -205 -22 l-190 -3
-5 23 c-18 95 7 68 -747 827 l-726 732 -975 -3 -975 -3 -789 -788 -789 -788
-482 3 c-265 2 -485 7 -490 11 -4 5 -9 102 -11 215 l-3 207 664 663 c365 364
670 662 676 662 16 0 242 -222 264 -260 l19 -31 -490 -492 c-269 -271 -495
-503 -502 -516 -18 -34 1 -42 91 -39 l76 3 233 225 c287 278 1110 1109 1110
1122 0 5 -481 492 -1070 1082 l-1070 1073 0 225 c0 267 2 285 39 291 45 7 325
5 351 -2z m640 -7 c6 -6 14 -36 17 -67 l6 -56 701 -699 c385 -384 720 -711
743 -726 46 -28 47 -30 63 -156 6 -47 19 -119 30 -160 26 -100 27 -100 -155
-100 l-141 0 -835 835 -834 836 0 145 c0 118 3 147 15 155 21 13 376 7 390 -7z
m5978 -215 l2 -217 -662 -657 c-365 -361 -671 -661 -680 -666 -13 -7 -42 15
-141 106 -69 63 -133 127 -142 141 l-17 27 293 296 c734 740 745 751 729 761
-8 5 -56 10 -105 10 l-90 0 -405 -407 c-223 -225 -522 -526 -664 -670 l-260
-262 49 -58 c27 -32 510 -520 1074 -1085 l1024 -1027 -6 -242 c-3 -133 -9
-245 -15 -251 -11 -11 -299 -29 -347 -21 -29 5 -34 10 -39 42 -3 20 -6 91 -6
158 l0 122 -1061 1067 c-583 587 -1064 1075 -1069 1083 -5 10 -2 32 6 56 25
70 53 227 60 330 l6 100 742 743 741 742 490 -2 490 -3 3 -216z m-4179 -111
c105 -106 197 -202 205 -214 14 -20 5 -31 -189 -223 -174 -174 -206 -201 -221
-193 -34 18 -404 387 -404 401 0 14 398 421 411 421 4 0 93 -87 198 -192z
m1588 144 c59 -47 363 -359 363 -372 0 -6 -92 -103 -204 -217 l-204 -208 -128
125 c-167 163 -284 287 -284 300 0 16 380 410 395 410 7 0 35 -17 62 -38z
m-727 -772 c289 -36 453 -147 573 -389 l42 -84 3 -137 c3 -116 1 -147 -17
-206 -49 -164 -172 -300 -345 -384 -153 -74 -209 -85 -416 -85 -153 0 -185 3
-255 23 -237 68 -420 230 -484 429 -20 64 -23 86 -19 210 3 124 7 144 32 203
101 233 282 377 521 415 100 16 255 18 365 5z m982 -2317 l198 -198 0 -246 c0
-237 -1 -247 -22 -275 -11 -16 -105 -113 -207 -216 l-186 -188 -935 0 -935 0
-207 207 -208 208 0 255 -1 255 203 197 203 198 950 0 950 0 197 -197z"/>
<path d="M5320 5314 c-105 -12 -122 -17 -150 -40 -40 -35 -57 -92 -41 -144 15
-49 92 -116 215 -186 l85 -49 1 -56 c0 -69 -27 -113 -90 -148 -75 -42 -161
-29 -230 34 -38 35 -66 39 -90 15 -55 -55 51 -158 184 -180 82 -13 156 8 268
78 26 16 28 16 55 -6 15 -12 52 -34 82 -49 48 -23 62 -25 137 -20 105 6 182
40 215 94 44 71 -14 123 -77 70 -81 -67 -169 -80 -246 -34 -71 41 -88 69 -88
141 l0 61 88 52 c173 102 212 142 212 222 0 59 -30 105 -83 126 -32 13 -82 17
-227 20 -102 2 -201 1 -220 -1z"/>
</g>
</svg>
